<?xml version="1.0" encoding="utf-8"?>
<!-- Generator: Adobe Illustrator 27.6.1, SVG Export Plug-In . SVG Version: 6.00 Build 0)  -->
<svg version="1.1" id="Layer_1" xmlns="http://www.w3.org/2000/svg" xmlns:xlink="http://www.w3.org/1999/xlink" x="0px" y="0px"
	 viewBox="0 0 32 12" style="enable-background:new 0 0 32 12;" xml:space="preserve">
<style type="text/css">
	.st0{fill:#593C39;}
</style>
<path class="st0" d="M3,8.7H2.6C2,8.7,1.5,8.6,1.2,8.5S0.8,8,0.8,7.6v-3L0,4.2V3.9l1-1.3L1.6,3C1.8,3.1,2,3.2,2.1,3.2h0.2
	C2.1,3.6,1.9,3.8,1.7,3.8s-0.3,0-0.5-0.2L0.9,3.5L0.5,4l1,0.7v3c0,0.2,0.1,0.4,0.3,0.5C2,8.2,2.3,8.3,2.6,8.3h0.4
	c0.4,0,0.6-0.1,0.8-0.2s0.3-0.3,0.3-0.5V4.7L3.4,4.2V3.9l1-1.3L5,3c0.2,0.1,0.3,0.2,0.4,0.2h0.2C5.5,3.6,5.3,3.8,5.1,3.8
	s-0.3,0-0.4-0.2L4.3,3.5L3.9,4l1,0.7v3c0,0.4-0.2,0.6-0.5,0.8S3.7,8.7,3,8.7L3,8.7z"/>
<path class="st0" d="M2.8,2.2H2.6L1.8,1.5L1.1,1.8l0.4,0.4H0.9L0.5,1.9V1.7l1.4-0.8h0.2l0.7,0.6l0.7-0.6h0.2l0.8,0.5
	c0.1,0.1,0.2,0.1,0.4,0.1h0.2C5,2,4.8,2.2,4.7,2.2S4.4,2.1,4.3,2L3.5,1.5L2.8,2.2L2.8,2.2z"/>
<path class="st0" d="M4.2,12v-2c0-0.1,0-0.1-0.1-0.2c0,0-0.1-0.1-0.2-0.1c0-0.1,0-0.2,0.1-0.3c0.1-0.1,0.2-0.1,0.4-0.1
	s0.3,0,0.4,0.1s0.1,0.2,0.1,0.3V12C4.9,12,4.1,12,4.2,12z"/>
<path class="st0" d="M7.5,3.6c0-0.3,0.2-0.6,0.5-0.8c0.4-0.2,0.9-0.2,1.6-0.2s1.2,0.1,1.6,0.2c0.4,0.2,0.5,0.4,0.5,0.8v1.1
	c0,0.2-0.1,0.2-0.2,0.3c-0.1,0.1-0.3,0.1-0.6,0.1s-0.4-0.1-0.6-0.2s-0.2-0.3-0.2-0.6c0-0.2,0.1-0.3,0.2-0.4c0.1-0.1,0.3-0.1,0.6-0.1
	V3.6c0-0.2-0.1-0.3-0.3-0.4C10.4,3.1,10,3,9.6,3s-0.8,0-1,0.1C8.4,3.3,8.3,3.4,8.3,3.6v1c0,0.3,0.1,0.5,0.3,0.6l3.1,1.1v1.5
	c0,0.3-0.1,0.6-0.3,0.8c-0.2,0.2-0.5,0.2-1,0.2c-0.3,0-0.5-0.1-0.7-0.2S9.3,8.3,9.1,8C9,7.9,8.9,7.8,8.8,7.7
	C8.6,7.7,8.5,7.6,8.3,7.6v1.1H7.5V6.2h0.8v1c0.3,0,0.5,0.1,0.7,0.1c0.2,0.1,0.4,0.2,0.5,0.4s0.3,0.3,0.4,0.4s0.3,0.1,0.5,0.1
	s0.3-0.1,0.4-0.1c0.1-0.1,0.1-0.2,0.1-0.4V6.5L8.5,5.6C8.2,5.5,7.9,5.4,7.8,5.2S7.5,4.9,7.5,4.7L7.5,3.6L7.5,3.6z M10.9,4.2
	c-0.1,0-0.2,0-0.2,0c-0.1,0-0.1,0.1-0.1,0.1c0,0.1,0,0.2,0.1,0.2c0.1,0.1,0.1,0.1,0.2,0.1V4.2L10.9,4.2z"/>
<path class="st0" d="M18.4,7.6c0,0.4-0.1,0.6-0.4,0.8s-0.7,0.3-1.2,0.3h-0.9c-0.5,0-0.9-0.1-1.2-0.3c-0.3-0.2-0.4-0.5-0.4-0.8V4.2
	l-0.4-0.3V3.5l1.4-0.9h0.2l1.2,1h0.2c0.2,0,0.5,0,0.6-0.2c0.1-0.1,0.2-0.2,0.2-0.4c0-0.2,0-0.4-0.1-0.5s-0.2-0.2-0.4-0.2
	c0-0.2,0-0.3,0.1-0.3C17.3,2,17.5,2,17.7,2c0.3,0,0.5,0.1,0.6,0.3s0.2,0.5,0.2,0.8c0,0.3-0.1,0.6-0.4,0.7S17.4,4,16.9,4H16l-0.9-0.8
	l-0.7,0.5l0.7,0.5v3.4c0,0.2,0.1,0.4,0.2,0.5c0.1,0.1,0.4,0.2,0.6,0.2h0.9c0.3,0,0.5-0.1,0.6-0.2c0.1-0.1,0.2-0.3,0.2-0.5V6.4
	c-0.2,0-0.4-0.1-0.6-0.1s-0.2-0.2-0.2-0.4c0-0.1,0-0.2,0.1-0.4c0.1-0.1,0.2-0.3,0.3-0.4l0.3-0.4h0.8L18.4,7.6L18.4,7.6z M17.7,5.3
	c-0.1,0.1-0.2,0.2-0.2,0.3s-0.1,0.2-0.1,0.2c0,0,0,0.1,0.1,0.1c0.1,0,0.1,0,0.2,0C17.7,6,17.7,5.3,17.7,5.3z"/>
<path class="st0" d="M21,8.7V4l-1.7-0.8l-0.9,0.4L18,3.4l1.7-0.8l2.1,0.9v5.2C21.8,8.7,21,8.7,21,8.7z"/>
<path class="st0" d="M25.2,8.7h-0.8l-0.4-0.6c-0.1-0.2-0.2-0.3-0.3-0.5c-0.1-0.1-0.1-0.3-0.1-0.4c0-0.2,0.1-0.4,0.2-0.5
	c0.1-0.1,0.3-0.2,0.5-0.2h0.1v-2l-0.8-0.5V3.9l0.7-1.3l0.4,0.2C25,3,25.2,3,25.3,3c0,0,0.1,0,0.1-0.1c0-0.1,0-0.1,0-0.2
	c0-0.2-0.1-0.3-0.2-0.4c-0.1-0.1-0.3-0.1-0.5-0.1c0-0.2,0-0.2,0.1-0.3s0.2-0.1,0.3-0.1c0.2,0,0.4,0.1,0.5,0.2s0.2,0.4,0.2,0.7
	c0,0.4,0,0.6-0.2,0.8c-0.1,0.2-0.3,0.3-0.5,0.3c-0.1,0-0.2,0-0.4-0.1c-0.1,0-0.3-0.1-0.5-0.2L24.2,4l1.1,0.7L25.2,8.7L25.2,8.7z
	 M24.4,7.1h-0.1c-0.1,0-0.1,0-0.2,0.1c0,0,0,0.1,0,0.2c0,0.1,0,0.2,0.1,0.3s0.1,0.2,0.2,0.4L24.4,7.1L24.4,7.1z"/>
<path class="st0" d="M21.7,1.2c0-0.4,0.1-0.7,0.3-0.9S22.5,0,23,0c0.2,0,0.5,0.1,0.8,0.2c0.3,0.1,0.6,0.4,1,0.6l0.5,0.4v0.5h-2.7
	c-0.2,0-0.4,0-0.6-0.1C21.8,1.5,21.7,1.4,21.7,1.2L21.7,1.2z M23,0.8c-0.2,0-0.3,0-0.4,0.1s-0.1,0.2-0.1,0.4h2
	C24.2,1.1,24,1,23.7,0.9C23.5,0.8,23.2,0.8,23,0.8L23,0.8z"/>
<path class="st0" d="M27.8,3.6c0-0.3,0.2-0.6,0.5-0.8s0.9-0.2,1.5-0.2s1.2,0.1,1.5,0.2C31.8,3,32,3.3,32,3.6v1.1
	c0,0.2-0.1,0.2-0.2,0.3c-0.1,0.1-0.3,0.1-0.6,0.1s-0.4-0.1-0.6-0.2s-0.2-0.3-0.2-0.6c0-0.2,0.1-0.3,0.2-0.4c0.1-0.1,0.3-0.1,0.6-0.1
	V3.6c0-0.2-0.1-0.3-0.3-0.4c-0.2-0.1-0.5-0.1-1-0.1s-0.8,0-1,0.1c-0.2,0.1-0.3,0.2-0.3,0.4v1c0,0.3,0.1,0.5,0.3,0.6l3,1.1v1.5
	c0,0.3-0.1,0.6-0.3,0.8c-0.2,0.2-0.5,0.2-1,0.2c-0.3,0-0.5-0.1-0.7-0.2c-0.2-0.1-0.4-0.3-0.6-0.5c-0.1-0.1-0.2-0.2-0.4-0.3
	c-0.1-0.1-0.3-0.1-0.5-0.1v1.1h-0.8V6.2h0.8v1c0.3,0,0.5,0.1,0.7,0.1c0.2,0.1,0.4,0.2,0.5,0.4s0.3,0.3,0.4,0.4s0.3,0.1,0.5,0.1
	s0.3-0.1,0.4-0.1c0.1-0.1,0.1-0.2,0.1-0.4V6.5l-2.4-0.8c-0.3-0.1-0.6-0.2-0.7-0.4s-0.2-0.3-0.2-0.6L27.8,3.6L27.8,3.6z M31.2,4.2
	c-0.1,0-0.2,0-0.2,0c-0.1,0-0.1,0.1-0.1,0.1c0,0.1,0,0.2,0.1,0.2c0.1,0.1,0.1,0.1,0.2,0.1V4.2L31.2,4.2z"/>
</svg>
